{"title":"Karan Grewal - 22 Phatak - [2010] [Video] [PbTone]","uid":5990259,"size":31703626,"categoryP":"video","categoryS":"music_videos","magnet":"?xt=urn:btih:85eb5e1bbe96f69df680967bb485ee02e425fdfa&amp;dn=Karan+Grewal+-+22+Phatak+-+%5B2010%5D+%5BVideo%5D+%5BPbTone%5D&amp;tr=udp%3A%2F%2Ftracker.openbittorrent.com%3A80&amp;tr=udp%3A%2F%2Fopen.demonii.com%3A1337&amp;tr=udp%3A%2F%2Ftracker.coppersurfer.tk%3A6969&amp;tr=udp%3A%2F%2Fexodus.desync.com%3A6969","seeders":0,"leechers":0,"uploader":"PBTONE","files":-1,"time":1290818096,"description":"      :::::::::  :::::::::   ::::::::::: ::::::::  ::::    ::: :::::::::: \n     :+:    :+: :+:    :+:      :+:    :+:    :+: :+:+:   :+: :+:         \n    +:+    +:+ +:+    +:+      +:+    +:+    +:+ :+:+:+  +:+ +:+          \n   +#++:++#+  +#++:++#+       +#+    +#+    +:+ +#+ +:+ +#+ +#++:++#      \n  +#+        +#+    +#+      +#+    +#+    +#+ +#+  +#+#+# +#+            \n #+#        #+#    #+#      #+#    #+#    #+# #+#   #+#+# #+#             \n###        #########       ###     ########  ###    #### ########## \n\n\n\n\nGeneral\nFormat                           : AVI\nFormat/Info                      : Audio Video Interleave\nFile size                        : 30.0 MiB\nDuration                         : 3mn 26s\nOverall bit rate                 : 1 218 Kbps\nWriting application              : MEncoder Sherpya-SVN-r30075-4.2.5\nWriting library                  : MPlayer\n\nVideo\nID                               : 0\nFormat                           : MPEG-4 Visual\nFormat profile                   : Simple@L3\nFormat settings, BVOP            : No\nFormat settings, QPel            : No\nFormat settings, GMC             : No warppoints\nFormat settings, Matrix          : Default (H.263)\nCodec ID                         : XVID\nCodec ID/Hint                    : XviD\nDuration                         : 3mn 26s\nBit rate                         : 1 020 Kbps\nWidth                            : 720 pixels\nHeight                           : 576 pixels\nDisplay aspect ratio             : 5:4\nFrame rate                       : 29.970 fps\nStandard                         : PAL\nColor space                      : YUV\nChroma subsampling               : 4:2:0\nBit depth                        : 8 bits\nScan type                        : Progressive\nCompression mode                 : Lossy\nBits/(Pixel*Frame)               : 0.082\nStream size                      : 25.1 MiB (84%)\nWriting library                  : XviD 1.2.1 (UTC 2008-12-04)\n\nAudio\nID                               : 1\nFormat                           : MPEG Audio\nFormat version                   : Version 1\nFormat profile                   : Layer 3\nMode                             : Joint stereo\nMode extension                   : MS Stereo\nCodec ID                         : 55\nCodec ID/Hint                    : MP3\nDuration                         : 3mn 26s\nBit rate mode                    : Variable\nBit rate                         : 185 Kbps\nChannel(s)                       : 2 channels\nSampling rate                    : 44.1 KHz\nCompression mode                 : Lossy\nStream size                      : 4.55 MiB (15%)\nAlignment                        : Aligned on interleaves\nInterleave, duration             : 26 ms (0.79 video frame)\nInterleave, preload duration     : 381 ms\n\n\n\nScreens:- http://imagehacks.in/share-91D8_4CF0EAF6.html","torrent":{"xt":"urn:btih:85eb5e1bbe96f69df680967bb485ee02e425fdfa","amp;dn":"Karan+Grewal+-+22+Phatak+-+%5B2010%5D+%5BVideo%5D+%5BPbTone%5D","amp;tr":["udp%3A%2F%2Ftracker.openbittorrent.com%3A80","udp%3A%2F%2Fopen.demonii.com%3A1337","udp%3A%2F%2Ftracker.coppersurfer.tk%3A6969","udp%3A%2F%2Fexodus.desync.com%3A6969"],"infoHash":"85eb5e1bbe96f69df680967bb485ee02e425fdfa","infoHashBuffer":{"type":"Buffer","data":[133,235,94,27,190,150,246,157,246,128,150,123,180,133,238,2,228,37,253,250]},"announce":[],"urlList":[]}}